<svg width="16" height="16" viewBox="0 0 16 16" fill="none" xmlns="http://www.w3.org/2000/svg">
<path d="M14.2109 13.0691C13.2918 11.4802 11.8755 10.3409 10.2227 9.80085C11.0403 9.31414 11.6755 8.57252 12.0307 7.68986C12.386 6.80721 12.4417 5.83233 12.1894 4.91494C11.937 3.99756 11.3904 3.18838 10.6336 2.61168C9.87683 2.03499 8.95166 1.72266 8.00018 1.72266C7.0487 1.72266 6.12353 2.03499 5.36675 2.61168C4.60996 3.18838 4.0634 3.99756 3.81101 4.91494C3.55861 5.83233 3.61434 6.80721 3.96962 7.68986C4.32491 8.57252 4.96011 9.31414 5.77768 9.80085C4.12484 10.3403 2.70854 11.4796 1.78949 13.0691C1.75579 13.1241 1.73343 13.1852 1.72374 13.249C1.71406 13.3127 1.71723 13.3777 1.73308 13.4402C1.74893 13.5027 1.77714 13.5614 1.81604 13.6128C1.85493 13.6642 1.90373 13.7073 1.95956 13.7395C2.01538 13.7718 2.0771 13.7925 2.14106 13.8005C2.20503 13.8085 2.26996 13.8037 2.332 13.7862C2.39405 13.7687 2.45197 13.7389 2.50234 13.6987C2.5527 13.6585 2.5945 13.6085 2.62527 13.5519C3.76216 11.5871 5.77165 10.414 8.00018 10.414C10.2287 10.414 12.2382 11.5871 13.3751 13.5519C13.4059 13.6085 13.4477 13.6585 13.498 13.6987C13.5484 13.7389 13.6063 13.7687 13.6684 13.7862C13.7304 13.8037 13.7953 13.8085 13.8593 13.8005C13.9233 13.7925 13.985 13.7718 14.0408 13.7395C14.0966 13.7073 14.1454 13.6642 14.1843 13.6128C14.2232 13.5614 14.2514 13.5027 14.2673 13.4402C14.2831 13.3777 14.2863 13.3127 14.2766 13.249C14.2669 13.1852 14.2446 13.1241 14.2109 13.0691ZM4.62087 6.06913C4.62087 5.40076 4.81906 4.74741 5.19039 4.19168C5.56171 3.63596 6.08949 3.20282 6.70697 2.94705C7.32446 2.69128 8.00393 2.62436 8.65945 2.75475C9.31497 2.88514 9.91711 3.20699 10.3897 3.67959C10.8623 4.1522 11.1842 4.75433 11.3146 5.40986C11.445 6.06538 11.378 6.74484 11.1223 7.36233C10.8665 7.97982 10.4333 8.5076 9.87762 8.87892C9.3219 9.25024 8.66855 9.44844 8.00018 9.44844C7.10423 9.44748 6.24524 9.09114 5.61171 8.4576C4.97817 7.82407 4.62183 6.96508 4.62087 6.06913Z" fill="white"/>
</svg>
