<svg width="554" height="428" viewBox="0 0 554 428" fill="none" xmlns="http://www.w3.org/2000/svg">
<path d="M127.61 371.27C127.61 374.044 127.205 376.081 126.396 377.381C125.594 378.675 124.352 379.322 122.671 379.322C120.97 379.322 119.721 378.661 118.926 377.34C118.13 376.019 117.732 374.002 117.732 371.291C117.732 368.503 118.134 366.466 118.936 365.18C119.745 363.886 120.99 363.239 122.671 363.239C124.373 363.239 125.621 363.907 126.417 365.242C127.212 366.577 127.61 368.586 127.61 371.27ZM124.954 375.981C125.154 375.469 125.296 374.822 125.379 374.04C125.462 373.259 125.504 372.335 125.504 371.27C125.504 370.212 125.462 369.292 125.379 368.51C125.296 367.729 125.151 367.078 124.943 366.56C124.736 366.034 124.449 365.636 124.082 365.366C123.723 365.09 123.252 364.951 122.671 364.951C122.097 364.951 121.623 365.09 121.25 365.366C120.883 365.636 120.593 366.041 120.378 366.58C120.171 367.106 120.029 367.77 119.953 368.572C119.877 369.375 119.839 370.281 119.839 371.291C119.839 372.37 119.87 373.273 119.932 373.999C120.001 374.725 120.146 375.375 120.368 375.95C120.568 376.482 120.852 376.894 121.219 377.184C121.592 377.468 122.076 377.61 122.671 377.61C123.245 377.61 123.716 377.475 124.082 377.205C124.456 376.928 124.746 376.52 124.954 375.981Z" fill="#2E7F98"/>
<path d="M415.875 379H408.342V377.423H411.144V367.068H408.342V365.657C409.401 365.657 410.179 365.508 410.677 365.211C411.182 364.906 411.465 364.336 411.528 363.499H413.136V377.423H415.875V379ZM428.336 371.27C428.336 374.044 427.931 376.081 427.122 377.381C426.32 378.675 425.078 379.322 423.397 379.322C421.696 379.322 420.447 378.661 419.652 377.34C418.856 376.019 418.458 374.002 418.458 371.291C418.458 368.503 418.86 366.466 419.662 365.18C420.471 363.886 421.716 363.239 423.397 363.239C425.099 363.239 426.347 363.907 427.143 365.242C427.938 366.577 428.336 368.586 428.336 371.27ZM425.68 375.981C425.881 375.469 426.022 374.822 426.105 374.04C426.188 373.259 426.23 372.335 426.23 371.27C426.23 370.212 426.188 369.292 426.105 368.51C426.022 367.729 425.877 367.078 425.67 366.56C425.462 366.034 425.175 365.636 424.808 365.366C424.449 365.09 423.978 364.951 423.397 364.951C422.823 364.951 422.349 365.09 421.976 365.366C421.609 365.636 421.319 366.041 421.104 366.58C420.897 367.106 420.755 367.77 420.679 368.572C420.603 369.375 420.565 370.281 420.565 371.291C420.565 372.37 420.596 373.273 420.658 373.999C420.727 374.725 420.873 375.375 421.094 375.95C421.295 376.482 421.578 376.894 421.945 377.184C422.318 377.468 422.802 377.61 423.397 377.61C423.971 377.61 424.442 377.475 424.808 377.205C425.182 376.928 425.472 376.52 425.68 375.981ZM439.936 371.27C439.936 374.044 439.531 376.081 438.722 377.381C437.92 378.675 436.678 379.322 434.997 379.322C433.296 379.322 432.047 378.661 431.252 377.34C430.456 376.019 430.058 374.002 430.058 371.291C430.058 368.503 430.46 366.466 431.262 365.18C432.071 363.886 433.316 363.239 434.997 363.239C436.699 363.239 437.947 363.907 438.743 365.242C439.538 366.577 439.936 368.586 439.936 371.27ZM437.28 375.981C437.481 375.469 437.622 374.822 437.705 374.04C437.788 373.259 437.83 372.335 437.83 371.27C437.83 370.212 437.788 369.292 437.705 368.51C437.622 367.729 437.477 367.078 437.27 366.56C437.062 366.034 436.775 365.636 436.408 365.366C436.049 365.09 435.578 364.951 434.997 364.951C434.423 364.951 433.949 365.09 433.576 365.366C433.209 365.636 432.919 366.041 432.704 366.58C432.497 367.106 432.355 367.77 432.279 368.572C432.203 369.375 432.165 370.281 432.165 371.291C432.165 372.37 432.196 373.273 432.258 373.999C432.327 374.725 432.473 375.375 432.694 375.95C432.894 376.482 433.178 376.894 433.545 377.184C433.918 377.468 434.402 377.61 434.997 377.61C435.571 377.61 436.042 377.475 436.408 377.205C436.782 376.928 437.072 376.52 437.28 375.981ZM451.536 371.27C451.536 374.044 451.131 376.081 450.322 377.381C449.52 378.675 448.278 379.322 446.597 379.322C444.896 379.322 443.647 378.661 442.852 377.34C442.056 376.019 441.658 374.002 441.658 371.291C441.658 368.503 442.06 366.466 442.862 365.18C443.671 363.886 444.916 363.239 446.597 363.239C448.299 363.239 449.547 363.907 450.343 365.242C451.138 366.577 451.536 368.586 451.536 371.27ZM448.88 375.981C449.08 375.469 449.222 374.822 449.305 374.04C449.388 373.259 449.43 372.335 449.43 371.27C449.43 370.212 449.388 369.292 449.305 368.51C449.222 367.729 449.077 367.078 448.869 366.56C448.662 366.034 448.375 365.636 448.008 365.366C447.649 365.09 447.178 364.951 446.597 364.951C446.023 364.951 445.549 365.09 445.176 365.366C444.809 365.636 444.519 366.041 444.304 366.58C444.097 367.106 443.955 367.77 443.879 368.572C443.803 369.375 443.765 370.281 443.765 371.291C443.765 372.37 443.796 373.273 443.858 373.999C443.927 374.725 444.072 375.375 444.294 375.95C444.494 376.482 444.778 376.894 445.145 377.184C445.518 377.468 446.002 377.61 446.597 377.61C447.171 377.61 447.642 377.475 448.008 377.205C448.382 376.928 448.672 376.52 448.88 375.981Z" fill="#2E7F98"/>
<path d="M121.466 194H111.931V191.831C112.616 191.181 113.263 190.559 113.871 189.964C114.48 189.369 115.075 188.75 115.656 188.107C116.832 186.813 117.634 185.779 118.063 185.004C118.492 184.223 118.706 183.417 118.706 182.587C118.706 182.158 118.637 181.781 118.499 181.456C118.367 181.131 118.184 180.861 117.949 180.647C117.707 180.439 117.427 180.283 117.108 180.18C116.79 180.076 116.441 180.024 116.06 180.024C115.694 180.024 115.32 180.072 114.94 180.169C114.566 180.259 114.207 180.373 113.861 180.512C113.57 180.629 113.29 180.771 113.02 180.937C112.751 181.103 112.533 181.245 112.367 181.362H112.253V179.163C112.681 178.948 113.276 178.741 114.037 178.54C114.805 178.333 115.531 178.229 116.216 178.229C117.655 178.229 118.782 178.613 119.599 179.381C120.415 180.142 120.823 181.176 120.823 182.483C120.823 183.085 120.75 183.642 120.605 184.154C120.467 184.665 120.273 185.139 120.024 185.575C119.768 186.025 119.46 186.471 119.101 186.913C118.741 187.356 118.36 187.792 117.959 188.221C117.309 188.926 116.583 189.66 115.78 190.42C114.985 191.181 114.349 191.783 113.871 192.226H121.466V194ZM132.89 189.082C132.89 189.829 132.769 190.521 132.527 191.157C132.291 191.793 131.959 192.343 131.531 192.807C131.095 193.277 130.552 193.647 129.902 193.917C129.258 194.187 128.535 194.322 127.733 194.322C126.993 194.322 126.263 194.239 125.544 194.073C124.831 193.914 124.212 193.703 123.687 193.44V191.25H123.832C123.991 191.368 124.219 191.503 124.517 191.655C124.814 191.8 125.143 191.939 125.502 192.07C125.91 192.215 126.284 192.33 126.623 192.413C126.962 192.489 127.342 192.527 127.764 192.527C128.179 192.527 128.584 192.454 128.978 192.309C129.372 192.157 129.711 191.914 129.995 191.582C130.251 191.278 130.445 190.922 130.576 190.514C130.714 190.106 130.784 189.625 130.784 189.072C130.784 188.525 130.707 188.075 130.555 187.723C130.41 187.37 130.196 187.079 129.912 186.851C129.615 186.588 129.248 186.405 128.812 186.301C128.383 186.191 127.903 186.135 127.37 186.135C126.81 186.135 126.246 186.18 125.679 186.27C125.112 186.353 124.658 186.433 124.32 186.509V178.551H132.796V180.366H126.322V184.475C126.571 184.447 126.817 184.427 127.059 184.413C127.301 184.399 127.522 184.392 127.723 184.392C128.511 184.392 129.179 184.458 129.725 184.589C130.272 184.721 130.797 184.977 131.302 185.357C131.814 185.744 132.205 186.229 132.475 186.81C132.751 187.391 132.89 188.148 132.89 189.082ZM144.739 186.27C144.739 189.044 144.334 191.081 143.525 192.381C142.722 193.675 141.481 194.322 139.8 194.322C138.098 194.322 136.85 193.661 136.054 192.34C135.259 191.019 134.861 189.002 134.861 186.291C134.861 183.503 135.262 181.466 136.065 180.18C136.874 178.886 138.119 178.239 139.8 178.239C141.502 178.239 142.75 178.907 143.546 180.242C144.341 181.577 144.739 183.586 144.739 186.27ZM142.083 190.981C142.283 190.469 142.425 189.822 142.508 189.04C142.591 188.259 142.633 187.335 142.633 186.27C142.633 185.212 142.591 184.292 142.508 183.51C142.425 182.729 142.28 182.078 142.072 181.56C141.865 181.034 141.578 180.636 141.211 180.366C140.851 180.09 140.381 179.951 139.8 179.951C139.226 179.951 138.752 180.09 138.379 180.366C138.012 180.636 137.721 181.041 137.507 181.58C137.299 182.106 137.158 182.77 137.082 183.572C137.005 184.375 136.967 185.281 136.967 186.291C136.967 187.37 136.999 188.273 137.061 188.999C137.13 189.725 137.275 190.375 137.497 190.95C137.697 191.482 137.981 191.894 138.347 192.184C138.721 192.468 139.205 192.61 139.8 192.61C140.374 192.61 140.844 192.475 141.211 192.205C141.585 191.928 141.875 191.52 142.083 190.981Z" fill="#2E7F98"/>
<path d="M184.403 113.024C184.03 113.024 183.656 113.069 183.283 113.159C182.909 113.249 182.543 113.366 182.183 113.512C181.851 113.65 181.56 113.795 181.311 113.947C181.069 114.1 180.851 114.241 180.658 114.373H180.533V112.184C180.983 111.941 181.591 111.724 182.359 111.53C183.134 111.329 183.871 111.229 184.569 111.229C185.268 111.229 185.877 111.302 186.395 111.447C186.921 111.585 187.395 111.803 187.817 112.101C188.273 112.433 188.616 112.834 188.844 113.304C189.079 113.775 189.197 114.324 189.197 114.954C189.197 115.805 188.917 116.552 188.356 117.195C187.796 117.838 187.125 118.246 186.344 118.419V118.565C186.669 118.627 187.014 118.734 187.381 118.886C187.755 119.038 188.1 119.263 188.419 119.561C188.737 119.858 188.996 120.242 189.197 120.712C189.397 121.176 189.498 121.743 189.498 122.414C189.498 123.113 189.377 123.756 189.135 124.344C188.899 124.925 188.564 125.44 188.128 125.89C187.679 126.36 187.136 126.716 186.499 126.958C185.863 127.201 185.14 127.322 184.331 127.322C183.556 127.322 182.788 127.228 182.027 127.041C181.266 126.855 180.627 126.63 180.108 126.367V124.178H180.253C180.689 124.496 181.273 124.8 182.006 125.091C182.74 125.381 183.473 125.527 184.206 125.527C184.628 125.527 185.05 125.461 185.472 125.33C185.901 125.191 186.257 124.97 186.541 124.665C186.817 124.361 187.028 124.026 187.174 123.659C187.319 123.292 187.391 122.829 187.391 122.269C187.391 121.708 187.308 121.248 187.142 120.889C186.983 120.529 186.759 120.245 186.468 120.038C186.178 119.83 185.832 119.689 185.43 119.613C185.036 119.53 184.607 119.488 184.144 119.488H183.262V117.766H183.947C184.881 117.766 185.638 117.544 186.219 117.102C186.807 116.659 187.101 116.016 187.101 115.172C187.101 114.784 187.025 114.452 186.873 114.176C186.72 113.892 186.527 113.667 186.292 113.501C186.029 113.321 185.738 113.197 185.42 113.128C185.102 113.059 184.763 113.024 184.403 113.024ZM201.533 113.864L194.852 127H192.642L199.718 113.366H191.728V111.551H201.533V113.864ZM212.791 122.082C212.791 122.829 212.67 123.521 212.428 124.157C212.193 124.793 211.861 125.343 211.432 125.807C210.996 126.277 210.453 126.647 209.803 126.917C209.16 127.187 208.437 127.322 207.634 127.322C206.894 127.322 206.164 127.239 205.445 127.073C204.733 126.914 204.114 126.703 203.588 126.44V124.25H203.733C203.892 124.368 204.12 124.503 204.418 124.655C204.715 124.8 205.044 124.939 205.404 125.07C205.812 125.215 206.185 125.33 206.524 125.413C206.863 125.489 207.244 125.527 207.665 125.527C208.08 125.527 208.485 125.454 208.879 125.309C209.274 125.157 209.613 124.914 209.896 124.582C210.152 124.278 210.346 123.922 210.477 123.514C210.616 123.106 210.685 122.625 210.685 122.072C210.685 121.525 210.609 121.076 210.457 120.723C210.311 120.37 210.097 120.079 209.813 119.851C209.516 119.588 209.149 119.405 208.713 119.301C208.285 119.191 207.804 119.135 207.271 119.135C206.711 119.135 206.147 119.18 205.58 119.27C205.013 119.353 204.56 119.433 204.221 119.509V111.551H212.698V113.366H206.223V117.475C206.472 117.447 206.718 117.427 206.96 117.413C207.202 117.399 207.423 117.392 207.624 117.392C208.413 117.392 209.08 117.458 209.626 117.589C210.173 117.721 210.699 117.977 211.204 118.357C211.715 118.744 212.106 119.229 212.376 119.81C212.653 120.391 212.791 121.148 212.791 122.082Z" fill="#2E7F98"/>
<path d="M275.49 95.008C275.49 95.755 275.369 96.4467 275.127 97.0831C274.891 97.7195 274.559 98.2694 274.131 98.7328C273.695 99.2032 273.152 99.5733 272.502 99.843C271.858 100.113 271.135 100.248 270.333 100.248C269.593 100.248 268.863 100.165 268.144 99.9987C267.431 99.8396 266.812 99.6286 266.287 99.3657V97.1765H266.432C266.591 97.2941 266.819 97.429 267.117 97.5811C267.414 97.7264 267.743 97.8647 268.102 97.9962C268.51 98.1414 268.884 98.2555 269.223 98.3386C269.562 98.4146 269.942 98.4527 270.364 98.4527C270.779 98.4527 271.184 98.3801 271.578 98.2348C271.972 98.0826 272.311 97.8405 272.595 97.5085C272.851 97.2041 273.045 96.8479 273.176 96.4398C273.314 96.0317 273.384 95.551 273.384 94.9976C273.384 94.4511 273.307 94.0015 273.155 93.6488C273.01 93.296 272.796 93.0055 272.512 92.7772C272.215 92.5144 271.848 92.3311 271.412 92.2273C270.983 92.1166 270.503 92.0613 269.97 92.0613C269.41 92.0613 268.846 92.1062 268.279 92.1962C267.712 92.2792 267.258 92.3587 266.919 92.4348V84.4767H275.396V86.2924H268.922V90.4012C269.171 90.3735 269.417 90.3528 269.659 90.3389C269.901 90.3251 270.122 90.3182 270.323 90.3182C271.111 90.3182 271.779 90.3839 272.325 90.5153C272.872 90.6467 273.397 90.9027 273.902 91.2831C274.414 91.6705 274.805 92.1547 275.075 92.7357C275.351 93.3167 275.49 94.0742 275.49 95.008ZM287.339 92.1962C287.339 94.9699 286.934 97.007 286.125 98.3074C285.322 99.6009 284.081 100.248 282.4 100.248C280.698 100.248 279.45 99.5871 278.654 98.2659C277.859 96.9448 277.461 94.9284 277.461 92.2169C277.461 89.4293 277.862 87.3922 278.665 86.1057C279.474 84.8122 280.719 84.1654 282.4 84.1654C284.102 84.1654 285.35 84.8329 286.146 86.1679C286.941 87.5029 287.339 89.5123 287.339 92.1962ZM284.683 96.9067C284.883 96.3948 285.025 95.7481 285.108 94.9665C285.191 94.1848 285.233 93.2614 285.233 92.1962C285.233 91.1379 285.191 90.2179 285.108 89.4363C285.025 88.6546 284.88 88.0044 284.672 87.4856C284.465 86.9599 284.178 86.5622 283.811 86.2924C283.451 86.0157 282.981 85.8774 282.4 85.8774C281.826 85.8774 281.352 86.0157 280.978 86.2924C280.612 86.5622 280.321 86.9668 280.107 87.5064C279.899 88.0321 279.758 88.6961 279.682 89.4985C279.605 90.3009 279.567 91.207 279.567 92.2169C279.567 93.296 279.599 94.1987 279.661 94.925C279.73 95.6513 279.875 96.3015 280.097 96.8756C280.297 97.4082 280.581 97.8198 280.947 98.1103C281.321 98.3939 281.805 98.5357 282.4 98.5357C282.974 98.5357 283.444 98.4008 283.811 98.131C284.185 97.8544 284.475 97.4462 284.683 96.9067ZM298.939 92.1962C298.939 94.9699 298.534 97.007 297.725 98.3074C296.922 99.6009 295.681 100.248 294 100.248C292.298 100.248 291.05 99.5871 290.254 98.2659C289.459 96.9448 289.061 94.9284 289.061 92.2169C289.061 89.4293 289.462 87.3922 290.265 86.1057C291.074 84.8122 292.319 84.1654 294 84.1654C295.702 84.1654 296.95 84.8329 297.746 86.1679C298.541 87.5029 298.939 89.5123 298.939 92.1962ZM296.283 96.9067C296.483 96.3948 296.625 95.7481 296.708 94.9665C296.791 94.1848 296.832 93.2614 296.832 92.1962C296.832 91.1379 296.791 90.2179 296.708 89.4363C296.625 88.6546 296.48 88.0044 296.272 87.4856C296.065 86.9599 295.778 86.5622 295.411 86.2924C295.051 86.0157 294.581 85.8774 294 85.8774C293.426 85.8774 292.952 86.0157 292.578 86.2924C292.212 86.5622 291.921 86.9668 291.707 87.5064C291.499 88.0321 291.358 88.6961 291.282 89.4985C291.205 90.3009 291.167 91.207 291.167 92.2169C291.167 93.296 291.198 94.1987 291.261 94.925C291.33 95.6513 291.475 96.3015 291.697 96.8756C291.897 97.4082 292.181 97.8198 292.547 98.1103C292.921 98.3939 293.405 98.5357 294 98.5357C294.574 98.5357 295.044 98.4008 295.411 98.131C295.785 97.8544 296.075 97.4462 296.283 96.9067Z" fill="#2E7F98"/>
<path d="M364.554 121.989C364.554 122.784 364.423 123.517 364.16 124.188C363.897 124.859 363.544 125.419 363.102 125.869C362.638 126.346 362.119 126.709 361.545 126.958C360.971 127.201 360.338 127.322 359.646 127.322C358.948 127.322 358.311 127.204 357.737 126.969C357.17 126.734 356.669 126.384 356.233 125.921C355.7 125.361 355.282 124.614 354.977 123.68C354.68 122.739 354.531 121.584 354.531 120.214C354.531 118.872 354.67 117.662 354.946 116.583C355.223 115.497 355.648 114.553 356.222 113.75C356.783 112.969 357.506 112.36 358.391 111.924C359.276 111.481 360.3 111.26 361.462 111.26C361.808 111.26 362.13 111.277 362.427 111.312C362.725 111.347 362.987 111.402 363.216 111.478V113.46H363.122C362.935 113.356 362.666 113.263 362.313 113.18C361.96 113.09 361.583 113.045 361.182 113.045C359.895 113.045 358.854 113.481 358.059 114.352C357.27 115.217 356.803 116.503 356.658 118.212C357.149 117.866 357.654 117.6 358.173 117.413C358.692 117.226 359.259 117.133 359.875 117.133C360.476 117.133 361.002 117.195 361.452 117.32C361.908 117.437 362.382 117.679 362.873 118.046C363.44 118.475 363.862 119.018 364.139 119.675C364.416 120.332 364.554 121.103 364.554 121.989ZM362.448 122.072C362.448 121.435 362.365 120.903 362.199 120.474C362.033 120.045 361.763 119.678 361.39 119.374C361.12 119.153 360.812 119.007 360.466 118.938C360.127 118.869 359.778 118.834 359.418 118.834C358.934 118.834 358.464 118.907 358.007 119.052C357.551 119.198 357.101 119.408 356.658 119.685C356.644 119.837 356.634 119.986 356.627 120.131C356.62 120.27 356.617 120.446 356.617 120.66C356.617 121.733 356.72 122.597 356.928 123.254C357.142 123.912 357.405 124.41 357.717 124.748C358.014 125.074 358.318 125.302 358.63 125.433C358.948 125.565 359.29 125.63 359.657 125.63C360.487 125.63 361.158 125.333 361.67 124.738C362.188 124.143 362.448 123.254 362.448 122.072ZM375.915 127H366.38V124.831C367.065 124.181 367.712 123.559 368.32 122.964C368.929 122.369 369.524 121.75 370.105 121.107C371.281 119.813 372.083 118.779 372.512 118.004C372.941 117.223 373.155 116.417 373.155 115.587C373.155 115.158 373.086 114.781 372.948 114.456C372.817 114.131 372.633 113.861 372.398 113.647C372.156 113.439 371.876 113.283 371.558 113.18C371.239 113.076 370.89 113.024 370.51 113.024C370.143 113.024 369.77 113.072 369.389 113.169C369.016 113.259 368.656 113.373 368.31 113.512C368.02 113.629 367.739 113.771 367.47 113.937C367.2 114.103 366.982 114.245 366.816 114.362H366.702V112.163C367.131 111.948 367.726 111.741 368.486 111.54C369.254 111.333 369.981 111.229 370.665 111.229C372.104 111.229 373.232 111.613 374.048 112.381C374.864 113.142 375.272 114.176 375.272 115.483C375.272 116.085 375.2 116.642 375.054 117.154C374.916 117.665 374.722 118.139 374.473 118.575C374.217 119.025 373.909 119.471 373.55 119.913C373.19 120.356 372.81 120.792 372.408 121.221C371.758 121.926 371.032 122.66 370.23 123.42C369.434 124.181 368.798 124.783 368.32 125.226H375.915V127ZM387.339 122.082C387.339 122.829 387.218 123.521 386.976 124.157C386.741 124.793 386.409 125.343 385.98 125.807C385.544 126.277 385.001 126.647 384.351 126.917C383.708 127.187 382.985 127.322 382.182 127.322C381.442 127.322 380.712 127.239 379.993 127.073C379.281 126.914 378.662 126.703 378.136 126.44V124.25H378.281C378.44 124.368 378.668 124.503 378.966 124.655C379.263 124.8 379.592 124.939 379.952 125.07C380.36 125.215 380.733 125.33 381.072 125.413C381.411 125.489 381.791 125.527 382.213 125.527C382.628 125.527 383.033 125.454 383.427 125.309C383.822 125.157 384.161 124.914 384.444 124.582C384.7 124.278 384.894 123.922 385.025 123.514C385.164 123.106 385.233 122.625 385.233 122.072C385.233 121.525 385.157 121.076 385.004 120.723C384.859 120.37 384.645 120.079 384.361 119.851C384.064 119.588 383.697 119.405 383.261 119.301C382.833 119.191 382.352 119.135 381.819 119.135C381.259 119.135 380.695 119.18 380.128 119.27C379.561 119.353 379.108 119.433 378.769 119.509V111.551H387.246V113.366H380.771V117.475C381.02 117.447 381.266 117.427 381.508 117.413C381.75 117.399 381.971 117.392 382.172 117.392C382.96 117.392 383.628 117.458 384.174 117.589C384.721 117.721 385.247 117.977 385.752 118.357C386.263 118.744 386.654 119.229 386.924 119.81C387.201 120.391 387.339 121.148 387.339 122.082Z" fill="#2E7F98"/>
<path d="M428.229 180.864L421.547 194H419.337L426.414 180.366H418.424V178.551H428.229V180.864ZM439.487 189.082C439.487 189.829 439.366 190.521 439.124 191.157C438.889 191.793 438.557 192.343 438.128 192.807C437.692 193.277 437.149 193.647 436.499 193.917C435.855 194.187 435.133 194.322 434.33 194.322C433.59 194.322 432.86 194.239 432.141 194.073C431.429 193.914 430.809 193.703 430.284 193.44V191.25H430.429C430.588 191.368 430.816 191.503 431.114 191.655C431.411 191.8 431.74 191.939 432.1 192.07C432.508 192.215 432.881 192.33 433.22 192.413C433.559 192.489 433.939 192.527 434.361 192.527C434.776 192.527 435.181 192.454 435.575 192.309C435.97 192.157 436.309 191.914 436.592 191.582C436.848 191.278 437.042 190.922 437.173 190.514C437.312 190.106 437.381 189.625 437.381 189.072C437.381 188.525 437.305 188.075 437.152 187.723C437.007 187.37 436.793 187.079 436.509 186.851C436.212 186.588 435.845 186.405 435.409 186.301C434.98 186.191 434.5 186.135 433.967 186.135C433.407 186.135 432.843 186.18 432.276 186.27C431.709 186.353 431.256 186.433 430.917 186.509V178.551H439.394V180.366H432.919V184.475C433.168 184.447 433.414 184.427 433.656 184.413C433.898 184.399 434.119 184.392 434.32 184.392C435.108 184.392 435.776 184.458 436.322 184.589C436.869 184.721 437.395 184.977 437.899 185.357C438.411 185.744 438.802 186.229 439.072 186.81C439.349 187.391 439.487 188.148 439.487 189.082ZM451.336 186.27C451.336 189.044 450.931 191.081 450.122 192.381C449.32 193.675 448.078 194.322 446.397 194.322C444.696 194.322 443.447 193.661 442.652 192.34C441.856 191.019 441.458 189.002 441.458 186.291C441.458 183.503 441.86 181.466 442.662 180.18C443.471 178.886 444.716 178.239 446.397 178.239C448.099 178.239 449.347 178.907 450.143 180.242C450.938 181.577 451.336 183.586 451.336 186.27ZM448.68 190.981C448.88 190.469 449.022 189.822 449.105 189.04C449.188 188.259 449.23 187.335 449.23 186.27C449.23 185.212 449.188 184.292 449.105 183.51C449.022 182.729 448.877 182.078 448.669 181.56C448.462 181.034 448.175 180.636 447.808 180.366C447.449 180.09 446.978 179.951 446.397 179.951C445.823 179.951 445.349 180.09 444.976 180.366C444.609 180.636 444.319 181.041 444.104 181.58C443.897 182.106 443.755 182.77 443.679 183.572C443.603 184.375 443.565 185.281 443.565 186.291C443.565 187.37 443.596 188.273 443.658 188.999C443.727 189.725 443.872 190.375 444.094 190.95C444.294 191.482 444.578 191.894 444.945 192.184C445.318 192.468 445.802 192.61 446.397 192.61C446.971 192.61 447.442 192.475 447.808 192.205C448.182 191.928 448.472 191.52 448.68 190.981Z" fill="#2E7F98"/>
<path d="M99.4283 288H91.8956V286.423H94.697V276.068H91.8956V274.657C92.9539 274.657 93.732 274.508 94.2301 274.211C94.735 273.906 95.0186 273.336 95.0809 272.499H96.6891V286.423H99.4283V288ZM111.817 288H102.282V285.831C102.966 285.181 103.613 284.559 104.222 283.964C104.831 283.369 105.425 282.75 106.006 282.107C107.182 280.813 107.985 279.779 108.414 279.004C108.842 278.223 109.057 277.417 109.057 276.587C109.057 276.158 108.988 275.781 108.849 275.456C108.718 275.131 108.535 274.861 108.299 274.647C108.057 274.439 107.777 274.283 107.459 274.18C107.141 274.076 106.792 274.024 106.411 274.024C106.044 274.024 105.671 274.072 105.291 274.169C104.917 274.259 104.557 274.373 104.211 274.512C103.921 274.629 103.641 274.771 103.371 274.937C103.101 275.103 102.883 275.245 102.717 275.362H102.603V273.163C103.032 272.948 103.627 272.741 104.388 272.54C105.156 272.333 105.882 272.229 106.567 272.229C108.005 272.229 109.133 272.613 109.949 273.381C110.765 274.142 111.173 275.176 111.173 276.483C111.173 277.085 111.101 277.642 110.956 278.153C110.817 278.665 110.624 279.139 110.375 279.575C110.119 280.025 109.811 280.471 109.451 280.913C109.091 281.356 108.711 281.792 108.31 282.221C107.66 282.926 106.933 283.659 106.131 284.42C105.335 285.181 104.699 285.783 104.222 286.226H111.817V288ZM123.24 283.082C123.24 283.829 123.119 284.521 122.877 285.157C122.642 285.793 122.31 286.343 121.881 286.807C121.445 287.277 120.902 287.647 120.252 287.917C119.609 288.187 118.886 288.322 118.084 288.322C117.344 288.322 116.614 288.239 115.894 288.073C115.182 287.914 114.563 287.703 114.037 287.44V285.25H114.182C114.342 285.368 114.57 285.503 114.867 285.655C115.165 285.8 115.493 285.939 115.853 286.07C116.261 286.215 116.635 286.329 116.973 286.412C117.312 286.489 117.693 286.527 118.115 286.527C118.53 286.527 118.934 286.454 119.329 286.309C119.723 286.157 120.062 285.914 120.346 285.582C120.601 285.278 120.795 284.922 120.927 284.514C121.065 284.106 121.134 283.625 121.134 283.072C121.134 282.525 121.058 282.075 120.906 281.723C120.761 281.37 120.546 281.079 120.263 280.851C119.965 280.588 119.599 280.405 119.163 280.301C118.734 280.191 118.253 280.135 117.721 280.135C117.16 280.135 116.596 280.18 116.029 280.27C115.462 280.353 115.009 280.433 114.67 280.509V272.551H123.147V274.366H116.673V278.475C116.922 278.447 117.167 278.427 117.409 278.413C117.651 278.399 117.873 278.392 118.073 278.392C118.862 278.392 119.529 278.458 120.076 278.589C120.622 278.721 121.148 278.977 121.653 279.357C122.165 279.744 122.556 280.229 122.825 280.81C123.102 281.391 123.24 282.148 123.24 283.082Z" fill="#2E7F98"/>
<path d="M450.097 276.151C450.097 275.459 449.865 274.882 449.402 274.418C448.938 273.955 448.295 273.723 447.472 273.723C446.718 273.723 446.099 273.931 445.614 274.346C445.137 274.761 444.899 275.321 444.899 276.026C444.899 276.538 445.02 276.971 445.262 277.323C445.511 277.676 445.881 277.994 446.372 278.278C446.586 278.396 446.911 278.558 447.347 278.766C447.79 278.973 448.191 279.136 448.551 279.253C449.153 278.79 449.561 278.316 449.775 277.832C449.99 277.341 450.097 276.78 450.097 276.151ZM450.387 283.891C450.387 283.255 450.263 282.75 450.014 282.376C449.765 282.003 449.284 281.622 448.572 281.235C448.336 281.104 448.022 280.962 447.627 280.81C447.24 280.657 446.801 280.478 446.31 280.27C445.736 280.651 445.296 281.121 444.992 281.681C444.688 282.235 444.535 282.867 444.535 283.58C444.535 284.514 444.816 285.285 445.376 285.894C445.943 286.502 446.652 286.807 447.503 286.807C448.374 286.807 449.073 286.547 449.599 286.029C450.124 285.503 450.387 284.79 450.387 283.891ZM447.482 288.353C446.714 288.353 446.016 288.239 445.386 288.01C444.757 287.782 444.221 287.454 443.778 287.025C443.342 286.61 443.01 286.119 442.782 285.551C442.561 284.977 442.45 284.372 442.45 283.736C442.45 282.899 442.671 282.131 443.114 281.432C443.564 280.727 444.214 280.166 445.065 279.751V279.689C444.304 279.246 443.74 278.762 443.373 278.236C443.007 277.711 442.823 277.054 442.823 276.265C442.823 275.103 443.263 274.135 444.141 273.36C445.02 272.585 446.133 272.198 447.482 272.198C448.886 272.198 450.01 272.568 450.854 273.308C451.705 274.041 452.13 274.982 452.13 276.13C452.13 276.822 451.926 277.507 451.518 278.185C451.117 278.862 450.536 279.392 449.775 279.772V279.834C450.674 280.256 451.356 280.768 451.819 281.37C452.283 281.972 452.514 282.746 452.514 283.694C452.514 285.015 452.034 286.122 451.072 287.014C450.118 287.907 448.921 288.353 447.482 288.353ZM464.114 274.864L457.432 288H455.222L462.299 274.366H454.309V272.551H464.114V274.864ZM475.372 283.082C475.372 283.829 475.251 284.521 475.009 285.157C474.774 285.793 474.441 286.343 474.013 286.807C473.577 287.277 473.034 287.647 472.384 287.917C471.74 288.187 471.018 288.322 470.215 288.322C469.475 288.322 468.745 288.239 468.026 288.073C467.313 287.914 466.694 287.703 466.169 287.44V285.25H466.314C466.473 285.368 466.701 285.503 466.999 285.655C467.296 285.8 467.625 285.939 467.984 286.07C468.392 286.215 468.766 286.329 469.105 286.412C469.444 286.489 469.824 286.527 470.246 286.527C470.661 286.527 471.066 286.454 471.46 286.309C471.854 286.157 472.193 285.914 472.477 285.582C472.733 285.278 472.927 284.922 473.058 284.514C473.196 284.106 473.266 283.625 473.266 283.072C473.266 282.525 473.189 282.075 473.037 281.723C472.892 281.37 472.678 281.079 472.394 280.851C472.097 280.588 471.73 280.405 471.294 280.301C470.865 280.191 470.385 280.135 469.852 280.135C469.292 280.135 468.728 280.18 468.161 280.27C467.594 280.353 467.14 280.433 466.802 280.509V272.551H475.278V274.366H468.804V278.475C469.053 278.447 469.299 278.427 469.541 278.413C469.783 278.399 470.004 278.392 470.205 278.392C470.993 278.392 471.661 278.458 472.207 278.589C472.754 278.721 473.279 278.977 473.784 279.357C474.296 279.744 474.687 280.229 474.957 280.81C475.233 281.391 475.372 282.148 475.372 283.082Z" fill="#2E7F98"/>
<mask id="path-10-inside-1_304_1624" fill="white">
<path d="M401.774 348.98C403.967 350.136 406.688 349.299 407.775 347.071C417.98 326.161 422.983 303.069 422.326 279.767C421.627 254.967 414.541 230.767 401.753 209.507C388.965 188.247 370.908 170.647 349.328 158.407C327.748 146.168 303.374 139.703 278.565 139.639C253.756 139.575 229.349 145.913 207.706 158.041C186.063 170.168 167.915 187.675 155.017 208.869C142.119 230.062 134.908 254.225 134.08 279.02C133.303 302.319 138.186 325.436 148.283 346.399C149.358 348.632 152.075 349.484 154.274 348.339C156.473 347.195 157.321 344.487 156.249 342.252C146.864 322.661 142.326 301.075 143.052 279.32C143.828 256.068 150.591 233.409 162.686 213.536C174.78 193.662 191.799 177.245 212.094 165.872C232.39 154.499 255.277 148.556 278.542 148.616C301.807 148.676 324.662 154.738 344.899 166.216C365.136 177.693 382.069 194.198 394.06 214.134C406.052 234.071 412.697 256.764 413.353 280.02C413.966 301.778 409.317 323.34 399.83 342.882C398.747 345.112 399.581 347.824 401.774 348.98Z"/>
</mask>
<path d="M401.774 348.98C403.967 350.136 406.688 349.299 407.775 347.071C417.98 326.161 422.983 303.069 422.326 279.767C421.627 254.967 414.541 230.767 401.753 209.507C388.965 188.247 370.908 170.647 349.328 158.407C327.748 146.168 303.374 139.703 278.565 139.639C253.756 139.575 229.349 145.913 207.706 158.041C186.063 170.168 167.915 187.675 155.017 208.869C142.119 230.062 134.908 254.225 134.08 279.02C133.303 302.319 138.186 325.436 148.283 346.399C149.358 348.632 152.075 349.484 154.274 348.339C156.473 347.195 157.321 344.487 156.249 342.252C146.864 322.661 142.326 301.075 143.052 279.32C143.828 256.068 150.591 233.409 162.686 213.536C174.78 193.662 191.799 177.245 212.094 165.872C232.39 154.499 255.277 148.556 278.542 148.616C301.807 148.676 324.662 154.738 344.899 166.216C365.136 177.693 382.069 194.198 394.06 214.134C406.052 234.071 412.697 256.764 413.353 280.02C413.966 301.778 409.317 323.34 399.83 342.882C398.747 345.112 399.581 347.824 401.774 348.98Z" fill="#2FBCD3" stroke="#2FBCD3" stroke-width="3.03562" mask="url(#path-10-inside-1_304_1624)"/>
<path d="M80.4438 396.907L102.79 384.005" stroke="#2E7F98" stroke-width="3.03562" stroke-linecap="round"/>
<path d="M45.5342 280.795H71.337" stroke="#2E7F98" stroke-width="3.03562" stroke-linecap="round"/>
<path d="M77.4082 163.923L99.754 176.825" stroke="#2E7F98" stroke-width="3.03562" stroke-linecap="round"/>
<path d="M163.923 75.8904L176.825 98.2362" stroke="#2E7F98" stroke-width="3.03562" stroke-linecap="round"/>
<path d="M282.312 42.4986V68.3014" stroke="#2E7F98" stroke-width="3.03562" stroke-linecap="round"/>
<path d="M399.943 75.8904L387.041 98.2362" stroke="#2E7F98" stroke-width="3.03562" stroke-linecap="round"/>
<path d="M485.277 163.923L462.932 176.825" stroke="#2E7F98" stroke-width="3.03562" stroke-linecap="round"/>
<path d="M517.573 280.795H491.77" stroke="#2E7F98" stroke-width="3.03562" stroke-linecap="round"/>
<path d="M485.277 397.666L462.932 384.764" stroke="#2E7F98" stroke-width="3.03562" stroke-linecap="round"/>
<path d="M81.8173 373.381L90.0709 369.532" stroke="#2E7F98" stroke-width="3.03562" stroke-linecap="round"/>
<path d="M74.0765 353.649L82.6342 350.535" stroke="#2E7F98" stroke-width="3.03562" stroke-linecap="round"/>
<path d="M68.0946 335.436L76.8911 333.079" stroke="#2E7F98" stroke-width="3.03562" stroke-linecap="round"/>
<path d="M63.4552 317.222L72.4237 315.641" stroke="#2E7F98" stroke-width="3.03562" stroke-linecap="round"/>
<path d="M61.973 299.008L71.0452 298.214" stroke="#2E7F98" stroke-width="3.03562" stroke-linecap="round"/>
<path d="M61.973 261.063L71.0452 261.857" stroke="#2E7F98" stroke-width="3.03562" stroke-linecap="round"/>
<path d="M63.7998 241.332L72.7683 242.913" stroke="#2E7F98" stroke-width="3.03562" stroke-linecap="round"/>
<path d="M68.3873 221.6L77.1839 223.957" stroke="#2E7F98" stroke-width="3.03562" stroke-linecap="round"/>
<path d="M76.0097 204.904L84.5673 208.019" stroke="#2E7F98" stroke-width="3.03562" stroke-linecap="round"/>
<path d="M82.1136 185.173L90.3672 189.021" stroke="#2E7F98" stroke-width="3.03562" stroke-linecap="round"/>
<path d="M102.09 154.816L109.55 160.04" stroke="#2E7F98" stroke-width="3.03562" stroke-linecap="round"/>
<path d="M112.56 139.638L119.536 145.492" stroke="#2E7F98" stroke-width="3.03562" stroke-linecap="round"/>
<path d="M126.246 124.46L132.686 130.9" stroke="#2E7F98" stroke-width="3.03562" stroke-linecap="round"/>
<path d="M139.931 112.318L145.785 119.294" stroke="#2E7F98" stroke-width="3.03562" stroke-linecap="round"/>
<path d="M204.904 72.8548L208.019 81.4124" stroke="#2E7F98" stroke-width="3.03562" stroke-linecap="round"/>
<path d="M243.616 63.7479L245.197 72.7164" stroke="#2E7F98" stroke-width="3.03562" stroke-linecap="round"/>
<path d="M262.975 60.7123L263.768 69.7845" stroke="#2E7F98" stroke-width="3.03562" stroke-linecap="round"/>
<path d="M301.32 60.7123L300.526 69.7845" stroke="#2E7F98" stroke-width="3.03562" stroke-linecap="round"/>
<path d="M319.927 63.7479L318.346 72.7164" stroke="#2E7F98" stroke-width="3.03562" stroke-linecap="round"/>
<path d="M338.923 68.3014L336.566 77.0979" stroke="#2E7F98" stroke-width="3.03562" stroke-linecap="round"/>
<path d="M357.903 72.8548L354.788 81.4124" stroke="#2E7F98" stroke-width="3.03562" stroke-linecap="round"/>
<path d="M375.345 81.9616L371.496 90.2153" stroke="#2E7F98" stroke-width="3.03562" stroke-linecap="round"/>
<path d="M406.755 100.175L401.532 107.635" stroke="#2E7F98" stroke-width="3.03562" stroke-linecap="round"/>
<path d="M422.936 112.318L417.082 119.294" stroke="#2E7F98" stroke-width="3.03562" stroke-linecap="round"/>
<path d="M437.204 124.46L430.765 130.9" stroke="#2E7F98" stroke-width="3.03562" stroke-linecap="round"/>
<path d="M448.39 139.638L441.414 145.492" stroke="#2E7F98" stroke-width="3.03562" stroke-linecap="round"/>
<path d="M459.818 154.816L452.358 160.04" stroke="#2E7F98" stroke-width="3.03562" stroke-linecap="round"/>
<path d="M479.627 185.173L471.374 189.021" stroke="#2E7F98" stroke-width="3.03562" stroke-linecap="round"/>
<path d="M487.216 204.904L478.659 208.019" stroke="#2E7F98" stroke-width="3.03562" stroke-linecap="round"/>
<path d="M493.288 221.6L484.491 223.957" stroke="#2E7F98" stroke-width="3.03562" stroke-linecap="round"/>
<path d="M493.288 334.757L484.491 332.4" stroke="#2E7F98" stroke-width="3.03562" stroke-linecap="round"/>
<path d="M487.216 353.649L478.659 350.535" stroke="#2E7F98" stroke-width="3.03562" stroke-linecap="round"/>
<path d="M479.627 373.381L471.374 369.532" stroke="#2E7F98" stroke-width="3.03562" stroke-linecap="round"/>
<path d="M497.841 241.332L488.873 242.913" stroke="#2E7F98" stroke-width="3.03562" stroke-linecap="round"/>
<path d="M497.841 317.285L488.873 315.704" stroke="#2E7F98" stroke-width="3.03562" stroke-linecap="round"/>
<path d="M500.877 261.063L491.805 261.857" stroke="#2E7F98" stroke-width="3.03562" stroke-linecap="round"/>
<path d="M500.877 298.284L491.805 297.49" stroke="#2E7F98" stroke-width="3.03562" stroke-linecap="round"/>
<path d="M156.649 100.175L161.873 107.635" stroke="#2E7F98" stroke-width="3.03562" stroke-linecap="round"/>
<path d="M187.378 81.9616L191.227 90.2153" stroke="#2E7F98" stroke-width="3.03562" stroke-linecap="round"/>
<path d="M223.864 68.3014L226.221 77.0979" stroke="#2E7F98" stroke-width="3.03562" stroke-linecap="round"/>
<g opacity="0.2">
<mask id="path-60-inside-2_304_1624" fill="white">
<path d="M515.003 415.869C515.693 416.271 516.579 416.038 516.978 415.346C541.177 373.371 553.946 325.773 554 277.305C554.054 228.354 541.135 180.264 516.559 137.929C491.982 95.5952 456.627 60.5297 414.092 36.3033C371.556 12.0768 323.361 -0.44523 274.412 0.0120887C225.464 0.469407 177.51 13.8898 135.435 38.9067C93.36 63.9237 58.6657 99.6436 34.8847 142.43C11.1038 185.216 -0.914252 233.539 0.0542185 282.48C1.01315 330.939 14.6701 378.29 39.649 419.806C40.0608 420.49 40.9511 420.707 41.6333 420.292C42.3155 419.876 42.5312 418.986 42.1195 418.302C17.4063 377.222 3.89468 330.371 2.94586 282.423C1.98751 233.993 13.8801 186.174 37.4127 143.835C60.9453 101.495 95.2774 66.1484 136.913 41.3927C178.549 16.637 226.002 3.35672 274.439 2.90417C322.877 2.45163 370.569 14.8429 412.66 38.8164C454.751 62.7899 489.738 97.4893 514.057 139.381C538.377 181.274 551.161 228.862 551.108 277.302C551.055 325.259 538.421 372.354 514.48 413.889C514.081 414.581 514.313 415.466 515.003 415.869Z"/>
</mask>
<path d="M515.003 415.869C515.693 416.271 516.579 416.038 516.978 415.346C541.177 373.371 553.946 325.773 554 277.305C554.054 228.354 541.135 180.264 516.559 137.929C491.982 95.5952 456.627 60.5297 414.092 36.3033C371.556 12.0768 323.361 -0.44523 274.412 0.0120887C225.464 0.469407 177.51 13.8898 135.435 38.9067C93.36 63.9237 58.6657 99.6436 34.8847 142.43C11.1038 185.216 -0.914252 233.539 0.0542185 282.48C1.01315 330.939 14.6701 378.29 39.649 419.806C40.0608 420.49 40.9511 420.707 41.6333 420.292C42.3155 419.876 42.5312 418.986 42.1195 418.302C17.4063 377.222 3.89468 330.371 2.94586 282.423C1.98751 233.993 13.8801 186.174 37.4127 143.835C60.9453 101.495 95.2774 66.1484 136.913 41.3927C178.549 16.637 226.002 3.35672 274.439 2.90417C322.877 2.45163 370.569 14.8429 412.66 38.8164C454.751 62.7899 489.738 97.4893 514.057 139.381C538.377 181.274 551.161 228.862 551.108 277.302C551.055 325.259 538.421 372.354 514.48 413.889C514.081 414.581 514.313 415.466 515.003 415.869Z" stroke="#2E7F98" stroke-width="3.03562" mask="url(#path-60-inside-2_304_1624)"/>
</g>
<circle cx="278.5" cy="276.5" r="14.5" stroke="#2E7F98" stroke-width="8"/>
<path d="M263 281L186 330" stroke="#2E7F98" stroke-width="8" stroke-linecap="round"/>
</svg>
